<?xml version="1.0" encoding="utf-8"?>
<!-- Generator: Adobe Illustrator 22.1.0, SVG Export Plug-In . SVG Version: 6.00 Build 0)  -->
<svg version="1.1" id="Calque_1" xmlns="http://www.w3.org/2000/svg" xmlns:xlink="http://www.w3.org/1999/xlink" x="0px" y="0px"
	 viewBox="0 0 706.4 899" style="enable-background:new 0 0 706.4 899;" xml:space="preserve">
<style type="text/css">
	.st0{fill:#DFB6CD;}
</style>
<polygon class="st0" points="373.8,131 41.3,323 41.3,707 373.8,899 706.4,707 706.4,323 "/>
<g>
	<path d="M331.8-0.8L0,190.8V574l331.9,191.6L663.7,574V190.8L331.8-0.8z M646.7,564.2L331.8,746L17,564.2V200.6L331.8,18.8
		l314.9,181.8V564.2z"/>
	<path d="M76.1,535.9h511.5v-307H76.1V535.9z M102.3,509.6V298.3l229.5,132.5l229.5-132.5v211.3H102.3z M561.4,255.2v13.7
		L331.8,401.4L102.3,268.9v-13.7H561.4z"/>
</g>
</svg>
