<?xml version="1.0" encoding="utf-8"?>
<!-- Generator: Adobe Illustrator 22.1.0, SVG Export Plug-In . SVG Version: 6.00 Build 0)  -->
<svg version="1.1" id="Calque_1" xmlns="http://www.w3.org/2000/svg" xmlns:xlink="http://www.w3.org/1999/xlink" x="0px" y="0px"
	 viewBox="0 0 341 394.1" style="enable-background:new 0 0 341 394.1;" xml:space="preserve">
<style type="text/css">
	.st0{fill:url(#SVGID_1_);}
	.st1{fill:url(#SVGID_2_);}
	.st2{fill:url(#SVGID_3_);}
	.st3{fill:url(#SVGID_4_);}
	.st4{fill:url(#SVGID_5_);}
</style>
<g>
	<linearGradient id="SVGID_1_" gradientUnits="userSpaceOnUse" x1="53.125" y1="79.875" x2="311.8382" y2="338.5882">
		<stop  offset="0" style="stop-color:#8670CC"/>
		<stop  offset="0.9876" style="stop-color:#FF5E81"/>
	</linearGradient>
	<path class="st0" d="M170.3,0.2L-0.2,98.6v196.9l170.5,98.4l170.5-98.4V98.6L170.3,0.2z M331.8,290.3l-161.5,93.2L8.8,290.3V103.8
		l161.5-93.2l161.5,93.2V290.3z"/>
	<linearGradient id="SVGID_2_" gradientUnits="userSpaceOnUse" x1="3.625" y1="129.375" x2="262.3382" y2="388.0882">
		<stop  offset="0" style="stop-color:#8670CC"/>
		<stop  offset="0.9876" style="stop-color:#FF5E81"/>
	</linearGradient>
	<polygon class="st1" points="32.6,171.1 54.2,171.1 54.2,234.8 66.7,234.8 66.7,171.1 88.3,171.1 88.3,159.2 32.6,159.2 	"/>
	<linearGradient id="SVGID_3_" gradientUnits="userSpaceOnUse" x1="32.65" y1="100.35" x2="291.3632" y2="359.0632">
		<stop  offset="0" style="stop-color:#8670CC"/>
		<stop  offset="0.9876" style="stop-color:#FF5E81"/>
	</linearGradient>
	<path class="st2" d="M148.5,162.5c-5.6-3.3-12-4.9-19.2-4.9s-13.6,1.7-19.2,4.9c-5.6,3.3-10,7.9-13.2,13.8
		c-3.2,6-4.8,12.9-4.8,20.7c0,7.9,1.6,14.8,4.8,20.7c3.2,6,7.6,10.6,13.2,13.8c5.7,3.2,12.1,4.9,19.2,4.9c7.2,0,13.6-1.7,19.2-4.9
		c5.6-3.3,10-7.9,13.2-13.8c3.2-6,4.8-12.9,4.8-20.7c0-7.9-1.6-14.8-4.8-20.7C158.5,170.3,154.1,165.7,148.5,162.5z M147.1,216.7
		c-4.1,5-10,7.6-17.8,7.6c-7.7,0-13.6-2.6-17.8-7.6c-4.2-5.1-6.3-11.6-6.3-19.7c0-8.1,2.1-14.7,6.3-19.7c4.2-5.1,10.1-7.6,17.8-7.6
		c7.7,0,13.7,2.6,17.8,7.6c4.1,5.1,6.2,11.6,6.2,19.7C153.3,205.1,151.2,211.7,147.1,216.7z"/>
	<linearGradient id="SVGID_4_" gradientUnits="userSpaceOnUse" x1="76.5286" y1="56.4714" x2="335.2418" y2="315.1846">
		<stop  offset="0" style="stop-color:#8670CC"/>
		<stop  offset="0.9876" style="stop-color:#FF5E81"/>
	</linearGradient>
	<path class="st3" d="M209.5,236.4c10.3,0,18.1-3,23.4-9c5.3-5.9,7.9-14.2,7.9-24.8v-43.3h-12.5v40.1c0,8-1.3,14.2-3.9,18.6
		c-2.7,4.3-7.6,6.5-14.9,6.5s-12.3-2.1-14.9-6.5c-2.6-4.3-3.9-10.5-3.9-18.6v-40.1h-12.5v43.3c0,10.5,2.6,18.8,7.9,24.8
		C191.3,233.4,199.1,236.4,209.5,236.4z"/>
	<linearGradient id="SVGID_5_" gradientUnits="userSpaceOnUse" x1="107.7" y1="25.3" x2="366.4132" y2="284.0132">
		<stop  offset="0" style="stop-color:#8670CC"/>
		<stop  offset="0.9876" style="stop-color:#FF5E81"/>
	</linearGradient>
	<path class="st4" d="M290.5,222c-2.3,1.6-5.7,2.4-9.9,2.4c-7.6,0-16-2.2-25.4-6.7l-1.5,13.3c2.8,1.4,6.5,2.6,11.3,3.7
		c4.8,1.1,9.3,1.7,13.6,1.8c10.7,0,18.2-2.1,22.7-6.3c4.5-4.1,6.7-9.3,6.7-15.4c0-6.2-2-11.1-6.1-14.6c-4.1-3.5-10.5-6.6-19.1-9.3
		c-4-1.2-7.1-2.4-9.2-3.3c-2.2-0.9-3.8-2.1-5-3.5c-1.2-1.4-1.8-3.1-1.8-5.3c0-3.1,1.2-5.3,3.6-6.8c2.3-1.5,5.7-2.2,10-2.2
		c3.8,0,7.6,0.5,11.3,1.5s7.7,2.5,12,4.6l1.3-13c-3.2-1.5-6.9-2.7-11.1-3.6c-4.1-0.9-8.4-1.4-12.7-1.4c-8.8,0-15.6,1.9-20.3,5.8
		c-4.7,3.9-7.1,9-7.1,15.3c0,4.2,1,7.6,2.8,10.4c1.8,2.8,4.3,5,7.4,6.8c3.1,1.8,7,3.4,11.7,4.9c4.8,1.5,8.5,2.9,10.9,4
		c2.5,1.1,4.3,2.4,5.6,3.9s1.9,3.5,1.9,5.9C294.1,218,292.9,220.4,290.5,222z"/>
</g>
</svg>
