<?xml version="1.0" encoding="utf-8"?>
<!-- Generator: Adobe Illustrator 26.5.0, SVG Export Plug-In . SVG Version: 6.00 Build 0)  -->
<svg version="1.1" id="Calque_1" xmlns="http://www.w3.org/2000/svg" xmlns:xlink="http://www.w3.org/1999/xlink" x="0px" y="0px"
	 viewBox="0 0 519.6 600" style="enable-background:new 0 0 519.6 600;" xml:space="preserve">
<style type="text/css">
	.st0{fill:url(#SVGID_1_);}
	.st1{fill:url(#SVGID_00000011728783502085151100000017028874264631382959_);}
	.st2{fill:url(#SVGID_00000029009424047070286620000016509374296906379941_);}
	.st3{fill:url(#SVGID_00000012432692406334749660000016624350898051622291_);}
</style>
<g>
	
		<linearGradient id="SVGID_1_" gradientUnits="userSpaceOnUse" x1="72.3449" y1="486.4551" x2="454.9393" y2="103.8607" gradientTransform="matrix(1 0 0 -1 0 600)">
		<stop  offset="0" style="stop-color:#8670CC"/>
		<stop  offset="0.9876" style="stop-color:#FF5E81"/>
	</linearGradient>
	<path class="st0" d="M259.2,600.4l-259.8-150v-300l259.8-150l259.8,150v300L259.2,600.4z M14.8,441.5l244.4,141.1l244.4-141.1
		V159.3L259.2,18.1L14.8,159.3V441.5z"/>
</g>
<g>
	<g>
		<g>
			
				<linearGradient id="SVGID_00000165914882125574605050000000650455678486253731_" gradientUnits="userSpaceOnUse" x1="49.0419" y1="76.1366" x2="451.0419" y2="503.1366">
				<stop  offset="0" style="stop-color:#8670CC"/>
				<stop  offset="0.9876" style="stop-color:#FF5E81"/>
			</linearGradient>
			<path style="fill:url(#SVGID_00000165914882125574605050000000650455678486253731_);" d="M323.6,448.1H196
				c-46.5,0-84.3-37.8-84.3-84.3V236.2c0-46.5,37.8-84.3,84.3-84.3h127.6c46.5,0,84.3,37.8,84.3,84.3v127.6
				C407.9,410.3,370.1,448.1,323.6,448.1z M196,177.3c-32.5,0-58.9,26.4-58.9,58.9v127.6c0,32.5,26.4,58.9,58.9,58.9h127.6
				c32.5,0,58.9-26.4,58.9-58.9V236.2c0-32.5-26.4-58.9-58.9-58.9H196z"/>
		</g>
		<g>
			
				<linearGradient id="SVGID_00000001645980025043692530000009222497872788370590_" gradientUnits="userSpaceOnUse" x1="49.0425" y1="76.136" x2="451.0425" y2="503.136">
				<stop  offset="0" style="stop-color:#8670CC"/>
				<stop  offset="0.9876" style="stop-color:#FF5E81"/>
			</linearGradient>
			<path style="fill:url(#SVGID_00000001645980025043692530000009222497872788370590_);" d="M259.8,375.8c-41.8,0-75.8-34-75.8-75.8
				c0-41.8,34-75.8,75.8-75.8s75.8,34,75.8,75.8C335.6,341.8,301.6,375.8,259.8,375.8z M259.8,249.5c-27.8,0-50.5,22.6-50.5,50.5
				s22.6,50.5,50.5,50.5s50.5-22.6,50.5-50.5S287.6,249.5,259.8,249.5z"/>
		</g>
		<g>
			
				<linearGradient id="SVGID_00000018926679634675789530000013237489724378905746_" gradientUnits="userSpaceOnUse" x1="130.9901" y1="-1.0136" x2="532.9901" y2="425.9864">
				<stop  offset="0" style="stop-color:#8670CC"/>
				<stop  offset="0.9876" style="stop-color:#FF5E81"/>
			</linearGradient>
			<path style="fill:url(#SVGID_00000018926679634675789530000013237489724378905746_);" d="M357.1,219.8c0,10.1-8.2,18.2-18.2,18.2
				c-10.1,0-18.2-8.2-18.2-18.2c0-10.1,8.2-18.2,18.2-18.2C349,201.6,357.1,209.8,357.1,219.8z"/>
		</g>
	</g>
</g>
</svg>
