<?xml version="1.0" encoding="utf-8"?>
<!-- Generator: Adobe Illustrator 22.1.0, SVG Export Plug-In . SVG Version: 6.00 Build 0)  -->
<svg version="1.1" id="Calque_1" xmlns="http://www.w3.org/2000/svg" xmlns:xlink="http://www.w3.org/1999/xlink" x="0px" y="0px"
	 viewBox="0 0 692.1 382.3" style="enable-background:new 0 0 692.1 382.3;" xml:space="preserve">
<style type="text/css">
	.st0{fill:#010202;}
	.st1{fill:#EB5D30;}
</style>
<g>
	<path class="st0" d="M89.6,0h61.5v115.1c20.8-27.4,48.6-28.3,59.4-28.3c51.1,0,91.4,40.3,91.4,110.9c0,78.5-45.7,106-87.7,106
		c-10.8,0-44-0.8-63.2-33.7c-0.4,6.6-0.8,16.6-2.1,29.5H89.5V0H89.6z M193.9,127.9c-45.3,0-45.3,51.5-45.3,64.8
		c0,47.8,20.4,70.6,48.2,70.6c42.4,0,42.4-52.8,42.4-63.6C239.2,183.2,238.3,127.9,193.9,127.9z"/>
	<path class="st0" d="M461.9,296.6c-19.9,5.4-37.8,6.6-47.8,6.6c-61.9,0-61.9-39.1-61.9-56.5v-115h-40.3V91h40.3V49.8l61.1-22.4V91
		h49.9v40.7h-49.9v94.7c0.4,19.1,0.4,31.2,27.8,31.2c9.1,0,13.3-0.4,20.8-1.2V296.6z"/>
	<path class="st0" d="M692.1,90.6c-1.7,16.6-2.9,30.7-2.9,51.9v155c0,77.3-64.4,84.8-104.7,84.8c-29.9,0-88.5-3.7-92.2-67.3h59
		c0.8,6.2,3.7,29.1,36.6,29.1c18.3,0,34.1-8.7,38.2-27.4c2.5-10.4,2.5-17.9,2.9-49.9c-19.5,25.8-41.6,28.7-56.5,28.7
		c-60.2,0-88.5-52.4-88.5-103c0-53.2,29.5-103.9,89.8-103.9c38.2,0,52.4,20.8,58.6,29.9l2.1-27.8h57.6V90.6z M586.5,253.4
		c43.2,0,43.2-50.7,43.2-59.8c0-23.7-4.6-64-42-64c-23.3,0-42.4,17.9-42.4,62.7C545.4,202.7,545.4,253.4,586.5,253.4z"/>
</g>
<rect y="238.7" class="st1" width="60.9" height="60.9"/>
</svg>
