<svg xmlns="http://www.w3.org/2000/svg" viewBox="0 0 482.4 557"><path d="M241.2 557L0 417.7V139.2L241.2 0l241.2 139.3v278.5L241.2 557zM14.3 409.5l226.9 131 226.9-131v-262l-226.9-131-226.9 131v262z" fill="#fff"/><g fill="#fff"><path d="M135.2 199.5h25.4v47.6c8.6-11.3 20.1-11.7 24.6-11.7 21.1 0 37.8 16.7 37.8 45.8 0 32.5-18.9 43.8-36.2 43.8-4.5 0-18.2-.3-26.1-13.9-.2 2.7-.3 6.9-.9 12.2h-24.6V199.5zm43.1 52.9c-18.7 0-18.7 21.3-18.7 26.8 0 19.7 8.4 29.2 19.9 29.2 17.5 0 17.5-21.8 17.5-26.3 0-6.9-.3-29.7-18.7-29.7zM289.1 322.1c-8.2 2.2-15.6 2.7-19.7 2.7-25.6 0-25.6-16.1-25.6-23.4v-47.6h-16.7V237h16.7v-17l25.2-9.3V237h20.6v16.8H269V293c.2 8 .2 13 11.5 13 3.8 0 5.5-.2 8.6-.5v16.6zM384.2 236.9c-.7 6.9-1.2 12.7-1.2 21.5v64.1c0 31.9-26.6 35-43.3 35-12.4 0-36.6-1.5-38.1-27.8H326c.3 2.6 1.5 12 15.1 12 7.6 0 14.1-3.6 15.8-11.3 1-4.3 1-7.4 1.2-20.6-8.1 10.6-17.2 11.8-23.4 11.8-24.9 0-36.6-21.6-36.6-42.6 0-22 12.2-42.9 37.1-42.9 15.8 0 21.6 8.6 24.2 12.4l.9-11.5h23.9v-.1zm-43.6 67.4c17.9 0 17.9-20.9 17.9-24.7 0-9.8-1.9-26.4-17.3-26.4-9.6 0-17.5 7.4-17.5 25.9-.1 4.2-.1 25.2 16.9 25.2zM98.2 298.2h25.2v25.2H98.2z"/></g></svg>
