<?xml version="1.0" encoding="utf-8"?>
<!-- Generator: Adobe Illustrator 22.1.0, SVG Export Plug-In . SVG Version: 6.00 Build 0)  -->
<svg version="1.1" id="Calque_1" xmlns="http://www.w3.org/2000/svg" xmlns:xlink="http://www.w3.org/1999/xlink" x="0px" y="0px"
	 viewBox="0 0 482.4 557" style="enable-background:new 0 0 482.4 557;" xml:space="preserve">
<style type="text/css">
	.st0{fill:url(#SVGID_1_);}
	.st1{fill:#EA5D2F;}
</style>
<g>
	
		<linearGradient id="SVGID_1_" gradientUnits="userSpaceOnUse" x1="75.1974" y1="438.7782" x2="420.8772" y2="93.0984" gradientTransform="matrix(1 0 0 -1 0 551.2756)">
		<stop  offset="0" style="stop-color:#8670CC"/>
		<stop  offset="0.9876" style="stop-color:#FF5E81"/>
	</linearGradient>
	<path class="st0" d="M241.2,557L0,417.7V139.2L241.2,0l241.2,139.3v278.5L241.2,557z M14.3,409.5l226.9,131l226.9-131v-262
		l-226.9-131l-226.9,131C14.3,147.5,14.3,409.5,14.3,409.5z"/>
</g>
<g>
	<g>
		<path d="M135.2,199.5h25.4v47.6c8.6-11.3,20.1-11.7,24.6-11.7c21.1,0,37.8,16.7,37.8,45.8c0,32.5-18.9,43.8-36.2,43.8
			c-4.5,0-18.2-0.3-26.1-13.9c-0.2,2.7-0.3,6.9-0.9,12.2h-24.6V199.5z M178.3,252.4c-18.7,0-18.7,21.3-18.7,26.8
			c0,19.7,8.4,29.2,19.9,29.2c17.5,0,17.5-21.8,17.5-26.3C197,275.2,196.7,252.4,178.3,252.4z"/>
		<path d="M289.1,322.1c-8.2,2.2-15.6,2.7-19.7,2.7c-25.6,0-25.6-16.1-25.6-23.4v-47.6h-16.7V237h16.7v-17l25.2-9.3V237h20.6v16.8
			H269V293c0.2,8,0.2,13,11.5,13c3.8,0,5.5-0.2,8.6-0.5V322.1z"/>
		<path d="M384.2,236.9c-0.7,6.9-1.2,12.7-1.2,21.5v64.1c0,31.9-26.6,35-43.3,35c-12.4,0-36.6-1.5-38.1-27.8H326
			c0.3,2.6,1.5,12,15.1,12c7.6,0,14.1-3.6,15.8-11.3c1-4.3,1-7.4,1.2-20.6c-8.1,10.6-17.2,11.8-23.4,11.8
			c-24.9,0-36.6-21.6-36.6-42.6c0-22,12.2-42.9,37.1-42.9c15.8,0,21.6,8.6,24.2,12.4l0.9-11.5h23.9V236.9z M340.6,304.3
			c17.9,0,17.9-20.9,17.9-24.7c0-9.8-1.9-26.4-17.3-26.4c-9.6,0-17.5,7.4-17.5,25.9C323.6,283.3,323.6,304.3,340.6,304.3z"/>
	</g>
	<rect x="98.2" y="298.2" class="st1" width="25.2" height="25.2"/>
</g>
</svg>
