<?xml version="1.0" encoding="utf-8"?>
<!-- Generator: $$$/GeneralStr/196=Adobe Illustrator 27.6.0, SVG Export Plug-In . SVG Version: 6.00 Build 0)  -->
<svg version="1.1" id="Calque_1" xmlns="http://www.w3.org/2000/svg" xmlns:xlink="http://www.w3.org/1999/xlink" x="0px" y="0px"
	 viewBox="0 0 38 56" style="enable-background:new 0 0 38 56;" xml:space="preserve">
<style type="text/css">
	.st0{fill:#FCBE00;}
</style>
<g id="Groupe_514" transform="translate(0 0)">
	<g>
		<g id="Groupe_511" transform="translate(0 0)">
			<path id="Tracé_1044" class="st0" d="M19,0.2l-1.3,0l-1,0.1C7.3,0.9,0.9,7.6,0.1,17.2c0,0.1,0,0.3,0,0.4v0c0,0.2,0,0.3,0,0.5
				c0,0.3,0,0.7,0,1l0,0c0,3.2,0.8,6.4,2.2,9.3c0,0,0.4,0.6,0.6,1.1c0,0,0,0.1,0.1,0.1C3,29.9,3.1,30,3.2,30.2s0.2,0.3,0.3,0.4
				l14.3,24.7c0.2,0.4,0.6,0.6,1,0.6h0c0.4,0,0.8-0.2,1-0.6l14.7-24.7c0-0.1,0.1-0.1,0.1-0.2l0.5-0.7c0,0,0-0.1,0-0.1l0.3-0.5
				c1.7-3,2.6-6.4,2.6-9.9C38,8,30.2,0.2,19,0.2 M33.4,27.9l-0.3,0.5l-0.5,0.7c0,0.1-0.1,0.1-0.1,0.2c0,0,0,0,0,0.1l-13.7,23
				L5.5,29.4c0,0,0,0,0-0.1c-0.1-0.1-0.2-0.3-0.2-0.4c-0.1-0.2-0.2-0.3-0.3-0.5c-0.2-0.4-0.6-1-0.6-1l0,0c-1.3-2.5-2-5.3-2-8.2
				c0-0.3,0-0.6,0-0.9c0-0.1,0-0.3,0-0.4c0,0,0,0,0,0c0-0.1,0-0.3,0-0.4C3.2,8.4,9.7,2.6,19,2.6l1.3,0h0c0,0,0,0,0,0
				c9.2,0.6,15.3,7.1,15.3,16.6C35.6,22.3,34.9,25.3,33.4,27.9"/>
			<path id="Tracé_1045" class="st0" d="M19,7.4c-4.6,0-8.7,2.9-10.3,7.2c-0.1,0.2-0.1,0.3-0.2,0.5l0,0.1c0,0.1-0.1,0.3-0.1,0.4
				l0,0.1c0,0.1-0.1,0.3-0.1,0.4l0,0.2c0,0.1,0,0.2-0.1,0.3l0,0.3c0,0.1,0,0.1,0,0.2s0,0.2,0,0.3l0,0.1c0,0,0,0.1,0,0.1l0,0.1
				c0,0.2,0,0.4,0,0.6s0,0.4,0,0.6l0,0.3c0,0.1,0,0.2,0,0.3l0,0.3c0,0.1,0,0.1,0,0.2s0,0.2,0,0.2l0.1,0.3c0,0.1,0,0.2,0.1,0.3
				l0.1,0.3c0,0.1,0.1,0.2,0.1,0.4l0,0.1c0,0.1,0.1,0.3,0.1,0.4c0,0,0,0.1,0,0.1c0.1,0.1,0.1,0.3,0.2,0.4c0,0,0,0,0,0.1
				c0.1,0.1,0.1,0.3,0.2,0.4l0,0c2.6,5.4,9.1,7.7,14.5,5.1s7.7-9.1,5.1-14.5C27.1,9.9,23.2,7.5,19,7.4 M19,26.9
				c-3.3,0-6.3-1.9-7.7-4.8l0,0c-0.1-0.1-0.1-0.2-0.2-0.4l0-0.1c0-0.1-0.1-0.2-0.1-0.4c0,0,0-0.1,0-0.1c0-0.1-0.1-0.2-0.1-0.4l0-0.1
				c0-0.1-0.1-0.2-0.1-0.3l-0.1-0.2c0-0.1,0-0.1,0-0.2l-0.1-0.8c0-0.1,0-0.1,0-0.2l0-0.2c0-0.1,0-0.3,0-0.4c0-0.1,0-0.3,0-0.4
				l0.1-0.9c0-0.1,0-0.1,0-0.3l0-0.1c0-0.1,0-0.2,0.1-0.3c0,0,0-0.1,0-0.1c0-0.1,0.1-0.2,0.1-0.3c0,0,0-0.1,0-0.1
				c0-0.1,0.1-0.2,0.1-0.4c1.6-4.4,6.5-6.7,10.9-5.1s6.7,6.5,5.1,10.9C25.8,24.6,22.6,26.9,19,26.9"/>
		</g>
	</g>
</g>
</svg>
