<?xml version="1.0" encoding="utf-8"?>
<!-- Generator: Adobe Illustrator 22.1.0, SVG Export Plug-In . SVG Version: 6.00 Build 0)  -->
<svg version="1.1" id="Calque_1" xmlns="http://www.w3.org/2000/svg" xmlns:xlink="http://www.w3.org/1999/xlink" x="0px" y="0px"
	 viewBox="0 0 706.4 899" style="enable-background:new 0 0 706.4 899;" xml:space="preserve">
<style type="text/css">
	.st0{fill:#DFB6CD;}
</style>
<polygon class="st0" points="373.8,131 41.3,323 41.3,707 373.8,899 706.4,707 706.4,323 "/>
<g>
	<path d="M331.8,765.6L0,574V190.8L331.8-0.8l331.8,191.6V574L331.8,765.6z M17,564.2L331.9,746l314.9-181.8V200.6l-315-181.7
		L17,200.6V564.2z"/>
</g>
<g>
	<path d="M331.8,397.1l-249-143.8c-6.1-3.5-8.2-11.3-4.7-17.4c3.5-6.1,11.3-8.2,17.4-4.7l236.3,136.4l236.3-136.4
		c6.1-3.5,13.9-1.4,17.4,4.7c3.5,6.1,1.4,13.9-4.7,17.4L331.8,397.1z"/>
</g>
<g>
	<path d="M331.8,500.6l-249-143.8c-6.1-3.5-8.2-11.3-4.7-17.4s11.3-8.2,17.4-4.7l236.3,136.4l236.3-136.4c6.1-3.5,13.9-1.4,17.4,4.7
		s1.4,13.9-4.7,17.4L331.8,500.6z"/>
</g>
<g>
	<path d="M331.8,604l-249-143.8c-6.1-3.5-8.2-11.3-4.7-17.4s11.3-8.2,17.4-4.7l236.3,136.5l236.3-136.4c6.1-3.5,13.9-1.4,17.4,4.7
		s1.4,13.9-4.7,17.4L331.8,604z"/>
</g>
</svg>
