<svg version="1.1" id="Calque_1" xmlns="http://www.w3.org/2000/svg" xmlns:xlink="http://www.w3.org/1999/xlink" x="0px" y="0px"
	 viewBox="0 0 188 36.3" style="enable-background:new 0 0 188 36.3;" xml:space="preserve">
<style type="text/css">
	.st0{fill: white;}
</style>
<g>
	<path class="st0" d="M156.7,36.3c-10.7,0-15.9-8.6-20.1-15.5c-3.9-6.5-6.6-10.5-11.3-10.5c-4.7,0-7.3,4-11.3,10.5
		c-4.2,6.9-9.3,15.5-20.1,15.5s-15.9-8.6-20.1-15.5c-3.9-6.5-6.6-10.5-11.3-10.5c-4.7,0-7.3,4-11.3,10.5
		c-4.2,6.9-9.3,15.5-20.1,15.5s-15.9-8.6-20.1-15.5C7.3,14.3,4.7,10.3,0,10.3V0c10.7,0,15.9,8.6,20.1,15.5C24,22,26.6,26,31.3,26
		c4.7,0,7.3-4,11.3-10.5C46.8,8.6,51.9,0,62.7,0c10.7,0,15.9,8.6,20.1,15.5C86.7,22,89.3,26,94,26c4.7,0,7.3-4,11.3-10.5
		C109.4,8.6,114.6,0,125.3,0s15.9,8.6,20.1,15.5C149.3,22,152,26,156.7,26s7.3-4,11.3-10.5C172.1,8.6,177.3,0,188,0v10.3
		c-4.7,0-7.3,4-11.3,10.5C172.6,27.7,167.4,36.3,156.7,36.3z"/>
</g>
</svg>

